<svg width="64" height="64" viewBox="0 0 64 64" fill="none" xmlns="http://www.w3.org/2000/svg">
<rect width="64" height="64" fill="#F7962A"/>
<g clip-path="url(#clip0_5004_292)">
<path d="M37.7944 24.3916H25.7944C24.6899 24.3916 23.7944 25.287 23.7944 26.3916V38.3916C23.7944 39.4962 24.6899 40.3916 25.7944 40.3916H37.7944C38.899 40.3916 39.7944 39.4962 39.7944 38.3916V26.3916C39.7944 25.287 38.899 24.3916 37.7944 24.3916Z" stroke="white" stroke-width="2" stroke-linecap="round" stroke-linejoin="round"/>
<path d="M34.7944 29.3916H28.7944V35.3916H34.7944V29.3916Z" stroke="white" stroke-width="2" stroke-linecap="round" stroke-linejoin="round"/>
<path fill-rule="evenodd" clip-rule="evenodd" d="M28.7944 20.3916C29.3467 20.3916 29.7944 20.8393 29.7944 21.3916V24.3916C29.7944 24.9439 29.3467 25.3916 28.7944 25.3916C28.2421 25.3916 27.7944 24.9439 27.7944 24.3916V21.3916C27.7944 20.8393 28.2421 20.3916 28.7944 20.3916Z" fill="white"/>
<path fill-rule="evenodd" clip-rule="evenodd" d="M34.7944 20.3916C35.3467 20.3916 35.7944 20.8393 35.7944 21.3916V24.3916C35.7944 24.9439 35.3467 25.3916 34.7944 25.3916C34.2421 25.3916 33.7944 24.9439 33.7944 24.3916V21.3916C33.7944 20.8393 34.2421 20.3916 34.7944 20.3916Z" fill="white"/>
<path fill-rule="evenodd" clip-rule="evenodd" d="M28.7944 39.3916C29.3467 39.3916 29.7944 39.8393 29.7944 40.3916V43.3916C29.7944 43.9439 29.3467 44.3916 28.7944 44.3916C28.2421 44.3916 27.7944 43.9439 27.7944 43.3916V40.3916C27.7944 39.8393 28.2421 39.3916 28.7944 39.3916Z" fill="white"/>
<path fill-rule="evenodd" clip-rule="evenodd" d="M34.7944 39.3916C35.3467 39.3916 35.7944 39.8393 35.7944 40.3916V43.3916C35.7944 43.9439 35.3467 44.3916 34.7944 44.3916C34.2421 44.3916 33.7944 43.9439 33.7944 43.3916V40.3916C33.7944 39.8393 34.2421 39.3916 34.7944 39.3916Z" fill="white"/>
<path fill-rule="evenodd" clip-rule="evenodd" d="M38.7944 29.3916C38.7944 28.8393 39.2421 28.3916 39.7944 28.3916H42.7944C43.3467 28.3916 43.7944 28.8393 43.7944 29.3916C43.7944 29.9439 43.3467 30.3916 42.7944 30.3916H39.7944C39.2421 30.3916 38.7944 29.9439 38.7944 29.3916Z" fill="white"/>
<path fill-rule="evenodd" clip-rule="evenodd" d="M38.7944 34.3916C38.7944 33.8393 39.2421 33.3916 39.7944 33.3916H42.7944C43.3467 33.3916 43.7944 33.8393 43.7944 34.3916C43.7944 34.9439 43.3467 35.3916 42.7944 35.3916H39.7944C39.2421 35.3916 38.7944 34.9439 38.7944 34.3916Z" fill="white"/>
<path fill-rule="evenodd" clip-rule="evenodd" d="M19.7944 29.3916C19.7944 28.8393 20.2421 28.3916 20.7944 28.3916H23.7944C24.3467 28.3916 24.7944 28.8393 24.7944 29.3916C24.7944 29.9439 24.3467 30.3916 23.7944 30.3916H20.7944C20.2421 30.3916 19.7944 29.9439 19.7944 29.3916Z" fill="white"/>
<path fill-rule="evenodd" clip-rule="evenodd" d="M19.7944 34.3916C19.7944 33.8393 20.2421 33.3916 20.7944 33.3916H23.7944C24.3467 33.3916 24.7944 33.8393 24.7944 34.3916C24.7944 34.9439 24.3467 35.3916 23.7944 35.3916H20.7944C20.2421 35.3916 19.7944 34.9439 19.7944 34.3916Z" fill="white"/>
</g>
<defs>
<clipPath id="clip0_5004_292">
<rect width="24" height="24" fill="white" transform="translate(19.7944 20.3916)"/>
</clipPath>
</defs>
</svg>
