<svg width="68" height="72" viewBox="0 0 68 72" fill="none" xmlns="http://www.w3.org/2000/svg">
<path fill-rule="evenodd" clip-rule="evenodd" d="M12.628 22.5863C13.7115 22.3245 14.819 22.1927 15.9299 22.1933C24.7274 22.1933 31.8571 30.3413 31.8571 40.3883C31.8571 50.4383 24.7274 58.5863 15.9299 58.5863C7.13242 58.5863 -7.62939e-05 50.4413 -7.62939e-05 40.3883C-7.62939e-05 40.0943 0.00554871 39.7973 0.0196112 39.5033H-7.62939e-05C-7.62939e-05 24.3383 10.7999 11.9993 24.0749 11.9993V18.1073C19.769 18.1073 15.7977 19.7813 12.628 22.5863ZM48.2737 22.5863C49.3368 22.3283 50.4393 22.1933 51.5699 22.1933C60.3674 22.1933 67.4999 30.3413 67.4999 40.3883C67.4999 50.4383 60.3674 58.5863 51.5699 58.5863C42.7724 58.5863 35.6427 50.4413 35.6427 40.3883C35.6427 40.0943 35.6484 39.7973 35.6624 39.5033H35.6427C35.6427 24.3383 46.4427 11.9993 59.7177 11.9993V18.1073C55.409 18.1073 51.4434 19.7813 48.2737 22.5863Z" fill="#FF7E1D"/>
</svg>
