<svg width="68" height="72" viewBox="0 0 68 72" fill="none" xmlns="http://www.w3.org/2000/svg">
<path fill-rule="evenodd" clip-rule="evenodd" d="M12.6279 22.5863C13.7114 22.3245 14.8189 22.1927 15.9298 22.1933C24.7273 22.1933 31.857 30.3413 31.857 40.3883C31.857 50.4383 24.7273 58.5863 15.9298 58.5863C7.13232 58.5863 -0.000183105 50.4413 -0.000183105 40.3883C-0.000183105 40.0943 0.0054419 39.7973 0.0195044 39.5033H-0.000183105C-0.000183105 24.3383 10.7998 11.9993 24.0748 11.9993V18.1073C19.7689 18.1073 15.7976 19.7813 12.6279 22.5863ZM48.2736 22.5863C49.3367 22.3283 50.4392 22.1933 51.5698 22.1933C60.3673 22.1933 67.4998 30.3413 67.4998 40.3883C67.4998 50.4383 60.3673 58.5863 51.5698 58.5863C42.7723 58.5863 35.6426 50.4413 35.6426 40.3883C35.6426 40.0943 35.6483 39.7973 35.6623 39.5033H35.6426C35.6426 24.3383 46.4426 11.9993 59.7176 11.9993V18.1073C55.4089 18.1073 51.4433 19.7813 48.2736 22.5863Z" fill="#FF7E1D"/>
</svg>
