<svg width="32" height="32" viewBox="0 0 32 32" fill="none" xmlns="http://www.w3.org/2000/svg">
<rect width="32" height="32" fill="#4498C5"/>
<path d="M22.4167 10.75C21.8581 11.144 21.2396 11.4454 20.585 11.6425C20.2337 11.2385 19.7668 10.9522 19.2474 10.8223C18.7281 10.6923 18.1814 10.725 17.6812 10.9159C17.1811 11.1068 16.7516 11.4467 16.4509 11.8897C16.1502 12.3326 15.9928 12.8572 16 13.3925V13.9758C14.9749 14.0024 13.9591 13.7751 13.0431 13.314C12.1271 12.853 11.3394 12.1725 10.75 11.3333C10.75 11.3333 8.41667 16.5833 13.6667 18.9167C12.4653 19.7321 11.0342 20.141 9.58333 20.0833C14.8333 23 21.25 20.0833 21.25 13.375C21.2495 13.2125 21.2338 13.0504 21.2033 12.8908C21.7987 12.3037 22.2188 11.5624 22.4167 10.75Z" fill="white"/>
</svg>
