<svg width="64" height="64" viewBox="0 0 64 64" fill="none" xmlns="http://www.w3.org/2000/svg">
<rect width="64" height="64" fill="#F7962A"/>
<path d="M40 23H24C22.8954 23 22 23.8954 22 25V35C22 36.1046 22.8954 37 24 37H40C41.1046 37 42 36.1046 42 35V25C42 23.8954 41.1046 23 40 23Z" stroke="white" stroke-width="2" stroke-linecap="round" stroke-linejoin="round"/>
<path fill-rule="evenodd" clip-rule="evenodd" d="M27 41C27 40.4477 27.4477 40 28 40H36C36.5523 40 37 40.4477 37 41C37 41.5523 36.5523 42 36 42H28C27.4477 42 27 41.5523 27 41Z" fill="white"/>
<path fill-rule="evenodd" clip-rule="evenodd" d="M32 36C32.5523 36 33 36.4477 33 37V41C33 41.5523 32.5523 42 32 42C31.4477 42 31 41.5523 31 41V37C31 36.4477 31.4477 36 32 36Z" fill="white"/>
</svg>
