<svg width="32" height="32" viewBox="0 0 32 32" fill="none" xmlns="http://www.w3.org/2000/svg">
<rect width="32" height="32" fill="#4498C5"/>
<path d="M18.9167 10.1667H13.0833C11.4725 10.1667 10.1667 11.4725 10.1667 13.0833V18.9167C10.1667 20.5275 11.4725 21.8333 13.0833 21.8333H18.9167C20.5275 21.8333 21.8333 20.5275 21.8333 18.9167V13.0833C21.8333 11.4725 20.5275 10.1667 18.9167 10.1667Z" fill="white"/>
<path d="M18.3333 15.6325C18.4053 16.118 18.3224 16.6138 18.0964 17.0494C17.8703 17.4851 17.5127 17.8383 17.0743 18.059C16.6359 18.2796 16.1391 18.3564 15.6545 18.2785C15.17 18.2005 14.7224 17.9717 14.3753 17.6247C14.0283 17.2776 13.7995 16.83 13.7215 16.3455C13.6436 15.8609 13.7204 15.3641 13.941 14.9257C14.1617 14.4873 14.5149 14.1297 14.9506 13.9036C15.3862 13.6776 15.882 13.5947 16.3675 13.6667C16.8627 13.7401 17.3212 13.9709 17.6752 14.3248C18.0292 14.6788 18.2599 15.1373 18.3333 15.6325Z" stroke="#4498C5" stroke-linecap="round" stroke-linejoin="round"/>
<path fill-rule="evenodd" clip-rule="evenodd" d="M18.2083 12.7917C18.2083 12.2394 18.656 11.7917 19.2083 11.7917H19.2142C19.7664 11.7917 20.2142 12.2394 20.2142 12.7917C20.2142 13.344 19.7664 13.7917 19.2142 13.7917H19.2083C18.656 13.7917 18.2083 13.344 18.2083 12.7917Z" fill="#4498C5"/>
</svg>
