<svg width="32" height="32" viewBox="0 0 32 32" fill="none" xmlns="http://www.w3.org/2000/svg">
<rect width="32" height="32" fill="#4498C5"/>
<path d="M18.3333 13.6667C19.2616 13.6667 20.1518 14.0354 20.8082 14.6918C21.4646 15.3482 21.8333 16.2384 21.8333 17.1667V21.25H19.5V17.1667C19.5 16.8572 19.3771 16.5605 19.1583 16.3417C18.9395 16.1229 18.6428 16 18.3333 16C18.0239 16 17.7272 16.1229 17.5084 16.3417C17.2896 16.5605 17.1667 16.8572 17.1667 17.1667V21.25H14.8333V17.1667C14.8333 16.2384 15.2021 15.3482 15.8585 14.6918C16.5148 14.0354 17.4051 13.6667 18.3333 13.6667Z" fill="white"/>
<path d="M12.5 14.25H10.1667V21.25H12.5V14.25Z" fill="white"/>
<path d="M11.3333 12.5C11.9777 12.5 12.5 11.9777 12.5 11.3333C12.5 10.689 11.9777 10.1667 11.3333 10.1667C10.689 10.1667 10.1667 10.689 10.1667 11.3333C10.1667 11.9777 10.689 12.5 11.3333 12.5Z" fill="white"/>
</svg>
